# xmcd
#
# Track frame offsets:
#	150
#	20996
#	37736
#	55055
#	77154
#	90383
#	106618
#	122698
#	141010
#	158940
#	175700
#	190724
#	206843
#
# Disc length: 2980 seconds
#
# Revision: 0
# Processed by: cddbd v1.5.2PL0 Copyright (c) Steve Scherf et al.
# Submitted via: dBpowerAMP V4.0
#
DISCID=9f0ba20d
DTITLE=João Luiz Corrêa-Camperismo VI - Disco 2
DYEAR=1900
DGENRE=
TTITLE0=AmadaParceira
TTITLE1=CançãoDeAmoe&Pampa
TTITLE2=O RioGrandeTemTudo
TTITLE3=AindaExisteUmLugar
TTITLE4=Decorando o NomeDasQueridas,SóMeAtrapalhoCom o NomeDosPiás
TTITLE5=VoltaGuria
TTITLE6=MateandoCom a Solidão
TTITLE7=Pilchas
TTITLE8=Bailanta&Carpeta
TTITLE9=AsRazõesDoBocaBraba
TTITLE10=AmorMeu
TTITLE11=SomCampeiro
TTITLE12=CruzandoSerra&Fronteira
EXTD=João Luiz Corrêa-Camperismo VI - Disco 2
EXTT0=
EXTT1=
EXTT2=
EXTT3=
EXTT4=
EXTT5=
EXTT6=
EXTT7=
EXTT8=
EXTT9=
EXTT10=
EXTT11=
EXTT12=
PLAYORDER=
